<svg width="145" height="38" viewBox="0 0 145 38" fill="none" xmlns="http://www.w3.org/2000/svg">
  <path
    d="M34.58 31V27H30.58V23H26.58V19H22.58V15H26.58V11H30.58V7H34.58V3H42.58V7H38.58V11H34.58V15H30.58V19H34.58V23H38.58V27H42.58V31H34.58ZM71.86 3V7H67.86V3H71.86ZM63.86 7H67.86V11H63.86V7ZM59.86 11H63.86V15H59.86V11ZM55.86 15H59.86V19H55.86V15ZM51.86 19H55.86V23H51.86V19ZM47.86 23H51.86V27H47.86V23ZM43.86 27H47.86V31H43.86V27ZM77.14 31V27H73.14V23H69.14V11H73.14V7H77.14V3H97.14V7H81.14V11H77.14V23H81.14V27H89.14V19H85.14V15H97.14V31H77.14ZM98.42 31V27H102.42V23H106.42V19H110.42V15H106.42V11H102.42V7H98.42V3H106.42V7H110.42V11H114.42V15H118.42V19H114.42V23H110.42V27H106.42V31H98.42Z"
    fill="black" />
  <path
    d="M35.08 29V25H31.08V21H27.08V17H23.08V13H27.08V9H31.08V5H35.08V1H43.08V5H39.08V9H35.08V13H31.08V17H35.08V21H39.08V25H43.08V29H35.08ZM72.36 1V5H68.36V1H72.36ZM64.36 5H68.36V9H64.36V5ZM60.36 9H64.36V13H60.36V9ZM56.36 13H60.36V17H56.36V13ZM52.36 17H56.36V21H52.36V17ZM48.36 21H52.36V25H48.36V21ZM44.36 25H48.36V29H44.36V25ZM77.64 29V25H73.64V21H69.64V9H73.64V5H77.64V1H97.64V5H81.64V9H77.64V21H81.64V25H89.64V17H85.64V13H97.64V29H77.64ZM98.92 29V25H102.92V21H106.92V17H110.92V13H106.92V9H102.92V5H98.92V1H106.92V5H110.92V9H114.92V13H118.92V17H114.92V21H110.92V25H106.92V29H98.92Z"
    fill="#F68813" />
</svg>