<svg width="316" height="21" viewBox="0 0 316 21" fill="none" xmlns="http://www.w3.org/2000/svg">
  <circle cx="4" cy="4" r="4" fill="black" />
  <circle cx="18" cy="4" r="4" fill="black" />
  <circle cx="32" cy="4" r="4" fill="black" />
  <circle cx="46" cy="4" r="4" fill="black" />
  <circle cx="60" cy="4" r="4" fill="black" />
  <circle cx="74" cy="4" r="4" fill="black" />
  <circle cx="88" cy="4" r="4" fill="black" />
  <circle cx="102" cy="4" r="4" fill="black" />
  <circle cx="116" cy="4" r="4" fill="black" />
  <circle cx="130" cy="4" r="4" fill="black" />
  <circle cx="144" cy="4" r="4" fill="black" />
  <circle cx="158" cy="4" r="4" fill="black" />
  <circle cx="172" cy="4" r="4" fill="black" />
  <circle cx="186" cy="4" r="4" fill="black" />
  <circle cx="200" cy="4" r="4" fill="black" />
  <circle cx="214" cy="4" r="4" fill="black" />
  <circle cx="228" cy="4" r="4" fill="black" />
  <circle cx="242" cy="4" r="4" fill="black" />
  <circle cx="256" cy="4" r="4" fill="black" />
  <circle cx="270" cy="4" r="4" fill="black" />
  <circle cx="284" cy="4" r="4" fill="black" />
  <circle cx="298" cy="4" r="4" fill="black" />
  <circle cx="312" cy="4" r="4" fill="black" />
  <circle cx="4" cy="17" r="4" fill="black" />
  <circle cx="18" cy="17" r="4" fill="black" />
  <circle cx="32" cy="17" r="4" fill="black" />
  <circle cx="46" cy="17" r="4" fill="black" />
  <circle cx="60" cy="17" r="4" fill="black" />
  <circle cx="74" cy="17" r="4" fill="black" />
  <circle cx="88" cy="17" r="4" fill="black" />
  <circle cx="102" cy="17" r="4" fill="black" />
  <circle cx="116" cy="17" r="4" fill="black" />
  <circle cx="130" cy="17" r="4" fill="black" />
  <circle cx="144" cy="17" r="4" fill="black" />
  <circle cx="158" cy="17" r="4" fill="black" />
  <circle cx="172" cy="17" r="4" fill="black" />
  <circle cx="186" cy="17" r="4" fill="black" />
  <circle cx="200" cy="17" r="4" fill="black" />
  <circle cx="214" cy="17" r="4" fill="black" />
  <circle cx="228" cy="17" r="4" fill="black" />
  <circle cx="242" cy="17" r="4" fill="black" />
  <circle cx="256" cy="17" r="4" fill="black" />
  <circle cx="270" cy="17" r="4" fill="black" />
  <circle cx="284" cy="17" r="4" fill="black" />
  <circle cx="298" cy="17" r="4" fill="black" />
  <circle cx="312" cy="17" r="4" fill="black" />
</svg>